<mxfile host="app.diagrams.net" modified="2022-01-30T03:14:20.527Z" agent="5.0 (Macintosh; Intel Mac OS X 10_15_7) AppleWebKit/537.36 (KHTML, like Gecko) Chrome/97.0.4692.99 Safari/537.36" etag="qgAGqry5aDNI2z1J-wZf" version="16.5.0" type="github">
  <diagram id="YAn2_cSFBUAaXqbegalO" name="Page-1">
    <mxGraphModel dx="1321" dy="864" grid="0" gridSize="10" guides="1" tooltips="1" connect="1" arrows="1" fold="1" page="1" pageScale="1" pageWidth="827" pageHeight="1169" math="0" shadow="0">
      <root>
        <mxCell id="0" />
        <mxCell id="1" parent="0" />
        <mxCell id="PdnqpYk0i5iZqw5W2xue-19" value="" style="ellipse;whiteSpace=wrap;html=1;shadow=0;sketch=1;fontColor=#000000;strokeColor=#67AB9F;fillColor=default;" parent="1" vertex="1">
          <mxGeometry x="600.37" y="171" width="183.63" height="191" as="geometry" />
        </mxCell>
        <mxCell id="PdnqpYk0i5iZqw5W2xue-2" value="&lt;h1&gt;抑郁的原因&lt;/h1&gt;&lt;div&gt;因干过蠢事而被别人议论&lt;/div&gt;&lt;div&gt;别人对待自己的态度：被批评指责、被骂、被羞辱&lt;/div&gt;&lt;div&gt;自己处在的状态：不快乐、悲惨、内疚，如同儿童状态&lt;/div&gt;&lt;p&gt;&lt;br&gt;&lt;/p&gt;" style="text;html=1;strokeColor=none;fillColor=none;spacing=5;spacingTop=-20;whiteSpace=wrap;overflow=hidden;rounded=0;" parent="1" vertex="1">
          <mxGeometry x="39" y="65" width="331" height="119" as="geometry" />
        </mxCell>
        <mxCell id="PdnqpYk0i5iZqw5W2xue-3" value="&lt;h1&gt;儿童自我状态&lt;/h1&gt;&lt;div&gt;由童年残留的遗迹搭建而成，包含小时候体验过的所有情感。&lt;/div&gt;&lt;div&gt;人进入儿童状态后，感受和行为和小时候的自己如出一辙&lt;/div&gt;" style="text;html=1;strokeColor=none;fillColor=none;spacing=5;spacingTop=-20;whiteSpace=wrap;overflow=hidden;rounded=0;" parent="1" vertex="1">
          <mxGeometry x="39" y="195" width="354" height="119" as="geometry" />
        </mxCell>
        <mxCell id="PdnqpYk0i5iZqw5W2xue-4" value="" style="rounded=1;whiteSpace=wrap;html=1;sketch=1;strokeColor=#67AB9F;" parent="1" vertex="1">
          <mxGeometry x="464.5" y="177" width="99" height="170" as="geometry" />
        </mxCell>
        <mxCell id="PdnqpYk0i5iZqw5W2xue-5" value="快乐和深情" style="text;html=1;strokeColor=none;fillColor=none;align=center;verticalAlign=middle;whiteSpace=wrap;rounded=0;sketch=1;" parent="1" vertex="1">
          <mxGeometry x="477" y="198" width="74" height="28" as="geometry" />
        </mxCell>
        <mxCell id="PdnqpYk0i5iZqw5W2xue-6" value="愤怒" style="text;html=1;strokeColor=none;fillColor=none;align=center;verticalAlign=middle;whiteSpace=wrap;rounded=0;sketch=1;" parent="1" vertex="1">
          <mxGeometry x="478" y="232" width="74" height="28" as="geometry" />
        </mxCell>
        <mxCell id="PdnqpYk0i5iZqw5W2xue-7" value="悲伤" style="text;html=1;strokeColor=none;fillColor=none;align=center;verticalAlign=middle;whiteSpace=wrap;rounded=0;sketch=1;" parent="1" vertex="1">
          <mxGeometry x="478" y="266" width="74" height="28" as="geometry" />
        </mxCell>
        <mxCell id="PdnqpYk0i5iZqw5W2xue-8" value="恐惧" style="text;html=1;strokeColor=none;fillColor=none;align=center;verticalAlign=middle;whiteSpace=wrap;rounded=0;sketch=1;" parent="1" vertex="1">
          <mxGeometry x="478" y="303" width="74" height="28" as="geometry" />
        </mxCell>
        <mxCell id="PdnqpYk0i5iZqw5W2xue-10" value="儿童基本情感" style="text;html=1;align=center;verticalAlign=middle;whiteSpace=wrap;rounded=0;sketch=1;fillColor=default;fontColor=#67AB9F;fontStyle=1" parent="1" vertex="1">
          <mxGeometry x="477" y="163" width="77" height="28" as="geometry" />
        </mxCell>
        <mxCell id="PdnqpYk0i5iZqw5W2xue-13" value="儿童自我状态" style="text;html=1;strokeColor=none;fillColor=default;align=center;verticalAlign=middle;whiteSpace=wrap;rounded=0;sketch=1;fontColor=#67AB9F;" parent="1" vertex="1">
          <mxGeometry x="658.5" y="135" width="77" height="28" as="geometry" />
        </mxCell>
        <mxCell id="PdnqpYk0i5iZqw5W2xue-14" value="自然型儿童&lt;br&gt;具备基本情感" style="text;html=1;strokeColor=none;fillColor=none;align=center;verticalAlign=middle;whiteSpace=wrap;rounded=0;shadow=0;sketch=1;fontColor=#000000;" parent="1" vertex="1">
          <mxGeometry x="652.5" y="206" width="83" height="30" as="geometry" />
        </mxCell>
        <mxCell id="PdnqpYk0i5iZqw5W2xue-15" value="适应型儿童" style="text;html=1;strokeColor=none;fillColor=none;align=center;verticalAlign=middle;whiteSpace=wrap;rounded=0;shadow=0;sketch=1;fontColor=#000000;" parent="1" vertex="1">
          <mxGeometry x="657.5" y="264" width="73" height="29" as="geometry" />
        </mxCell>
        <mxCell id="PdnqpYk0i5iZqw5W2xue-16" value="&lt;h1&gt;自我探索&lt;/h1&gt;&lt;div&gt;&lt;span style=&quot;white-space: pre&quot;&gt;	&lt;/span&gt;有不快乐的事情自然会有悲伤的情绪，需要理解自己，跟情绪做联结，并理解这些情绪。如果否认他们，不管是无视还是压抑，结果就像是做了截肢，重要的部位被切掉，在某种程度上成了一个残缺的人。&lt;/div&gt;&lt;div&gt;&lt;span style=&quot;white-space: pre&quot;&gt;	&lt;/span&gt;童年体验到的最强烈的情绪，不可避免地变成我们成年后经常有的感受。&lt;/div&gt;&lt;div&gt;&lt;span style=&quot;white-space: pre&quot;&gt;	&lt;/span&gt;成长的本质是要减少并最终打破这样的依赖关系，这样才能成为一个独立自主的人。&lt;br&gt;&lt;/div&gt;&lt;div&gt;依赖和顺从：顺从行为可能导致有些人学会了把依赖当成生活方式。这些人永远都没有真正长大成人。&lt;br&gt;&lt;/div&gt;" style="text;html=1;strokeColor=none;fillColor=none;spacing=5;spacingTop=-20;whiteSpace=wrap;overflow=hidden;rounded=0;" parent="1" vertex="1">
          <mxGeometry x="39" y="294" width="354" height="209" as="geometry" />
        </mxCell>
        <mxCell id="PdnqpYk0i5iZqw5W2xue-17" value="顺从行为&lt;br&gt;同意&lt;br&gt;取悦&lt;br&gt;道歉&lt;br&gt;依赖" style="text;html=1;strokeColor=none;fillColor=none;align=center;verticalAlign=middle;whiteSpace=wrap;rounded=0;shadow=0;sketch=1;fontColor=#000000;" parent="1" vertex="1">
          <mxGeometry x="641.74" y="287" width="104.5" height="66" as="geometry" />
        </mxCell>
        <mxCell id="PdnqpYk0i5iZqw5W2xue-21" value="" style="endArrow=none;dashed=1;html=1;dashPattern=1 3;strokeWidth=2;rounded=0;fontColor=#000000;entryX=1;entryY=0.5;entryDx=0;entryDy=0;exitX=0;exitY=0.5;exitDx=0;exitDy=0;strokeColor=#67AB9F;" parent="1" source="PdnqpYk0i5iZqw5W2xue-19" target="PdnqpYk0i5iZqw5W2xue-19" edge="1">
          <mxGeometry width="50" height="50" relative="1" as="geometry">
            <mxPoint x="526" y="318" as="sourcePoint" />
            <mxPoint x="576" y="268" as="targetPoint" />
          </mxGeometry>
        </mxCell>
        <mxCell id="KK1YKbXmgcOjcq8LJDTx-1" value="&lt;h1&gt;愤怒的表现&lt;/h1&gt;&lt;div&gt;&lt;span style=&quot;white-space: pre&quot;&gt;	&lt;/span&gt;被仁慈的独裁者给俘虏，他们完全掌控了你，而又对你倍加关心照顾。你依赖他们，爱着他们。这时你生气时会学习如何不带攻击性的发火，如撒泼、怄气。&lt;/div&gt;" style="text;html=1;strokeColor=none;fillColor=none;spacing=5;spacingTop=-20;whiteSpace=wrap;overflow=hidden;rounded=0;" vertex="1" parent="1">
          <mxGeometry x="36" y="513" width="351" height="131" as="geometry" />
        </mxCell>
        <mxCell id="KK1YKbXmgcOjcq8LJDTx-2" value="" style="endArrow=classic;startArrow=classic;html=1;rounded=0;strokeWidth=2;" edge="1" parent="1">
          <mxGeometry width="50" height="50" relative="1" as="geometry">
            <mxPoint x="456" y="535" as="sourcePoint" />
            <mxPoint x="790" y="535" as="targetPoint" />
          </mxGeometry>
        </mxCell>
        <mxCell id="KK1YKbXmgcOjcq8LJDTx-4" value="儿童如何释放愤怒" style="text;html=1;strokeColor=none;fillColor=none;align=center;verticalAlign=middle;whiteSpace=wrap;rounded=0;" vertex="1" parent="1">
          <mxGeometry x="537" y="492" width="139" height="26" as="geometry" />
        </mxCell>
        <mxCell id="KK1YKbXmgcOjcq8LJDTx-5" value="强" style="text;html=1;strokeColor=none;fillColor=none;align=center;verticalAlign=middle;whiteSpace=wrap;rounded=0;fontSize=16;" vertex="1" parent="1">
          <mxGeometry x="404.5" y="521" width="60" height="30" as="geometry" />
        </mxCell>
        <mxCell id="KK1YKbXmgcOjcq8LJDTx-6" value="弱" style="text;html=1;strokeColor=none;fillColor=none;align=center;verticalAlign=middle;whiteSpace=wrap;rounded=0;fontSize=16;" vertex="1" parent="1">
          <mxGeometry x="784" y="520" width="60" height="30" as="geometry" />
        </mxCell>
        <mxCell id="KK1YKbXmgcOjcq8LJDTx-7" value="叛逆" style="text;html=1;strokeColor=none;fillColor=none;align=center;verticalAlign=middle;whiteSpace=wrap;rounded=0;fontSize=14;" vertex="1" parent="1">
          <mxGeometry x="422" y="558" width="25" height="46" as="geometry" />
        </mxCell>
        <mxCell id="KK1YKbXmgcOjcq8LJDTx-8" value="退缩" style="text;html=1;strokeColor=none;fillColor=none;align=center;verticalAlign=middle;whiteSpace=wrap;rounded=0;fontSize=14;" vertex="1" parent="1">
          <mxGeometry x="801.5" y="555.5" width="25" height="46" as="geometry" />
        </mxCell>
        <mxCell id="KK1YKbXmgcOjcq8LJDTx-9" value="撒泼" style="text;html=1;strokeColor=none;fillColor=none;align=center;verticalAlign=middle;whiteSpace=wrap;rounded=0;" vertex="1" parent="1">
          <mxGeometry x="487" y="558" width="25" height="46" as="geometry" />
        </mxCell>
        <mxCell id="KK1YKbXmgcOjcq8LJDTx-10" value="怄气" style="text;html=1;strokeColor=none;fillColor=none;align=center;verticalAlign=middle;whiteSpace=wrap;rounded=0;" vertex="1" parent="1">
          <mxGeometry x="533" y="558" width="25" height="46" as="geometry" />
        </mxCell>
        <mxCell id="KK1YKbXmgcOjcq8LJDTx-11" value="任性" style="text;html=1;strokeColor=none;fillColor=none;align=center;verticalAlign=middle;whiteSpace=wrap;rounded=0;" vertex="1" parent="1">
          <mxGeometry x="583" y="558" width="25" height="46" as="geometry" />
        </mxCell>
        <mxCell id="KK1YKbXmgcOjcq8LJDTx-12" value="郁闷" style="text;html=1;strokeColor=none;fillColor=none;align=center;verticalAlign=middle;whiteSpace=wrap;rounded=0;" vertex="1" parent="1">
          <mxGeometry x="627.5" y="558" width="25" height="46" as="geometry" />
        </mxCell>
        <mxCell id="KK1YKbXmgcOjcq8LJDTx-13" value="拖延" style="text;html=1;strokeColor=none;fillColor=none;align=center;verticalAlign=middle;whiteSpace=wrap;rounded=0;" vertex="1" parent="1">
          <mxGeometry x="676" y="558" width="25" height="46" as="geometry" />
        </mxCell>
        <mxCell id="KK1YKbXmgcOjcq8LJDTx-14" value="厌烦" style="text;html=1;strokeColor=none;fillColor=none;align=center;verticalAlign=middle;whiteSpace=wrap;rounded=0;" vertex="1" parent="1">
          <mxGeometry x="730.5" y="558" width="25" height="46" as="geometry" />
        </mxCell>
        <mxCell id="KK1YKbXmgcOjcq8LJDTx-15" value="&lt;h1&gt;自我探索&lt;/h1&gt;&lt;div&gt;&lt;span style=&quot;white-space: pre&quot;&gt;	&lt;/span&gt;我们看到的自己，并不一定总是我们喜欢的样子。从当下的你变成你想成为的自己，必定要经历行为和态度的转变，需要付出艰辛的努力，需要勇气和决心。&lt;/div&gt;&lt;div&gt;&lt;span style=&quot;white-space: pre&quot;&gt;	&lt;/span&gt;困惑是学习过程的第一阶段，这说明固有知识的局限开始被打破了。你要直面新的信息，这些新的信息会挑战你现有的观念和行为模式。由此产生的焦虑是让你改变的动力，很可能也会开启你的创造力。&lt;br&gt;&lt;/div&gt;&lt;div&gt;&lt;span style=&quot;white-space: pre&quot;&gt;	&lt;/span&gt;没有一种批判比自我批判更强烈。&lt;br&gt;&lt;/div&gt;" style="text;html=1;strokeColor=none;fillColor=none;spacing=5;spacingTop=-20;whiteSpace=wrap;overflow=hidden;rounded=0;" vertex="1" parent="1">
          <mxGeometry x="30" y="658" width="363" height="183" as="geometry" />
        </mxCell>
        <mxCell id="KK1YKbXmgcOjcq8LJDTx-16" value="" style="ellipse;whiteSpace=wrap;html=1;shadow=0;sketch=1;strokeColor=#7EA6E0;" vertex="1" parent="1">
          <mxGeometry x="490" y="684" width="200.63" height="174" as="geometry" />
        </mxCell>
        <mxCell id="KK1YKbXmgcOjcq8LJDTx-17" value="父母自我状态" style="text;html=1;strokeColor=none;fillColor=none;align=center;verticalAlign=middle;whiteSpace=wrap;rounded=0;" vertex="1" parent="1">
          <mxGeometry x="518.5" y="652" width="139" height="26" as="geometry" />
        </mxCell>
        <mxCell id="KK1YKbXmgcOjcq8LJDTx-18" value="" style="endArrow=none;html=1;rounded=0;fontSize=14;strokeWidth=2;exitX=0.5;exitY=1;exitDx=0;exitDy=0;entryX=0.5;entryY=0;entryDx=0;entryDy=0;dashed=1;strokeColor=#7EA6E0;" edge="1" parent="1" source="KK1YKbXmgcOjcq8LJDTx-16" target="KK1YKbXmgcOjcq8LJDTx-16">
          <mxGeometry width="50" height="50" relative="1" as="geometry">
            <mxPoint x="619" y="761" as="sourcePoint" />
            <mxPoint x="669" y="711" as="targetPoint" />
          </mxGeometry>
        </mxCell>
        <mxCell id="KK1YKbXmgcOjcq8LJDTx-19" value="挑剔型父母&lt;br&gt;爱批评人&lt;br&gt;愤怒&lt;br&gt;严厉" style="text;html=1;strokeColor=none;fillColor=none;align=center;verticalAlign=middle;whiteSpace=wrap;rounded=0;" vertex="1" parent="1">
          <mxGeometry x="584.63" y="726" width="106" height="86" as="geometry" />
        </mxCell>
        <mxCell id="KK1YKbXmgcOjcq8LJDTx-20" value="&lt;h1&gt;成人自我状态&lt;/h1&gt;&lt;div&gt;&lt;span style=&quot;white-space: pre&quot;&gt;	&lt;/span&gt;我们用理性而不是情绪化的方式来行事。它让我们能应对此时此地正在发生的现实状况。我们能计划、考虑、决定、行动，我们能理性而合理地行事，我们所有的知识和技能都能为自己所用，而不再被父母过去的声音驱使，也不会被童年的情绪所困。&lt;br&gt;&lt;/div&gt;&lt;div&gt;&lt;span style=&quot;white-space: pre&quot;&gt;	&lt;/span&gt;没有人能‘让’我们产生什么感受，是自己在决定要选择（条件反射）什么样的感受。我们要为自己的情绪负起责任。&lt;br&gt;&lt;/div&gt;" style="text;html=1;strokeColor=none;fillColor=none;spacing=5;spacingTop=-20;whiteSpace=wrap;overflow=hidden;rounded=0;" vertex="1" parent="1">
          <mxGeometry x="27" y="900" width="363" height="183" as="geometry" />
        </mxCell>
        <mxCell id="KK1YKbXmgcOjcq8LJDTx-22" value="父母" style="ellipse;whiteSpace=wrap;html=1;fontSize=14;strokeColor=#7EA6E0;" vertex="1" parent="1">
          <mxGeometry x="547" y="874" width="92" height="67" as="geometry" />
        </mxCell>
        <mxCell id="KK1YKbXmgcOjcq8LJDTx-23" value="成人" style="ellipse;whiteSpace=wrap;html=1;fontSize=14;strokeColor=#7EA6E0;" vertex="1" parent="1">
          <mxGeometry x="549.5" y="948" width="92" height="67" as="geometry" />
        </mxCell>
        <mxCell id="KK1YKbXmgcOjcq8LJDTx-24" value="儿童" style="ellipse;whiteSpace=wrap;html=1;fontSize=14;strokeColor=#7EA6E0;" vertex="1" parent="1">
          <mxGeometry x="549.5" y="1019" width="92" height="67" as="geometry" />
        </mxCell>
        <mxCell id="KK1YKbXmgcOjcq8LJDTx-25" value="&lt;h1&gt;人生故事&lt;/h1&gt;&lt;div&gt;&lt;span style=&quot;white-space: pre&quot;&gt;	&lt;/span&gt;也许还有另一种活法，无需跟着预先设定的剧本走，甚至可以没有剧本，或者说，可以即兴发挥&lt;span&gt;。每一个全新的时刻都意味着独一无二的机会和挑战。所谓活得真实，就是真诚地回应当下的需求。&lt;/span&gt;&lt;/div&gt;" style="text;html=1;strokeColor=none;fillColor=none;spacing=5;spacingTop=-20;whiteSpace=wrap;overflow=hidden;rounded=0;" vertex="1" parent="1">
          <mxGeometry x="19" y="1071" width="363" height="127" as="geometry" />
        </mxCell>
        <mxCell id="KK1YKbXmgcOjcq8LJDTx-26" value="&lt;h1&gt;人生坐标与心理游戏&lt;/h1&gt;&lt;div&gt;&lt;br&gt;&lt;/div&gt;" style="text;html=1;strokeColor=none;fillColor=none;spacing=5;spacingTop=-20;whiteSpace=wrap;overflow=hidden;rounded=0;" vertex="1" parent="1">
          <mxGeometry x="19" y="1216" width="363" height="127" as="geometry" />
        </mxCell>
      </root>
    </mxGraphModel>
  </diagram>
</mxfile>
